<svg xmlns="http://www.w3.org/2000/svg" enable-background="new 0 0 64 64" viewBox="0 0 64 64" id="adobe-photoshop"><path fill="#dadde1" d="M63.21,13.85v44.54c0,3.1-2.51,5.61-5.62,5.61H6.41c-1.73,0-3.27-0.77-4.29-1.99
			c-0.83-0.98-1.33-2.24-1.33-3.62V13.85H63.21z"></path><path fill="#f1b974" d="M63.21,5.62v8.23H0.79V5.62C0.79,2.52,3.3,0,6.41,0h51.18c1.01,0,1.97,0.27,2.79,0.75
			C62.07,1.71,63.21,3.53,63.21,5.62z"></path><circle cx="8.58" cy="6.93" r="2.5" fill="#f2f2f2"></circle><circle cx="16.6" cy="6.93" r="2.5" fill="#f2f2f2"></circle><circle cx="24.63" cy="6.93" r="2.5" fill="#f2f2f2"></circle><path fill="#788d9a" d="M30.1 27.14c-.01.02-.01.03-.02.04-2.09.19-4.08.71-5.93 1.5H12.76c.12-.25.19-.54.19-.84 0-.25-.04-.48-.13-.7H30.1zM51.11 28.38c.02.1.05.19.08.28-.04.01-.08.02-.13.02H39.71c-1.85-.79-3.84-1.31-5.93-1.5-.01-.01-.01-.02-.02-.04h17.3c.06 0 .11.01.16.02C51.07 27.52 51.02 27.94 51.11 28.38z"></path><path fill="#788d9a" d="M30.12 28.78c-8.64.85-15.51 7.72-16.36 16.36-.26-.13-.55-.2-.87-.2-.25 0-.5.05-.72.14.69-7.38 5.43-13.6 11.98-16.4 1.85-.79 3.84-1.31 5.93-1.5-.1.24-.15.49-.15.76 0 .26.05.52.14.74C30.09 28.72 30.1 28.75 30.12 28.78zM51.69 45.04c-.2-.06-.41-.1-.63-.1-.34 0-.67.09-.95.25-.83-8.66-7.72-15.57-16.37-16.42.02-.02.03-.05.05-.09.09-.22.14-.48.14-.74 0-.27-.05-.52-.15-.76 2.09.19 4.08.71 5.93 1.5C46.25 31.47 50.99 37.67 51.69 45.04z"></path><path fill="#e95c60" d="M53.06 46.94c0 1.11-.9 2-2 2-1.1 0-2-.89-2-2 0-.76.43-1.42 1.05-1.75.28-.16.61-.25.95-.25.22 0 .43.04.63.1C52.48 45.31 53.06 46.06 53.06 46.94zM14.89 46.94c0 1.24-1.1 2.2-2.39 1.97-.76-.14-1.4-.77-1.56-1.53-.22-1.04.35-1.96 1.23-2.3.22-.09.47-.14.72-.14.32 0 .61.07.87.2C14.43 45.46 14.89 46.15 14.89 46.94zM12.95 27.84c0 .3-.07.59-.19.84-.36.8-1.23 1.3-2.2 1.13-.77-.14-1.41-.77-1.57-1.53-.22-1.03.36-1.96 1.24-2.3.22-.09.47-.14.72-.14.32 0 .61.07.87.2.46.22.82.61 1 1.1C12.91 27.36 12.95 27.59 12.95 27.84zM55.06 27.94c0 1.24-1.1 2.2-2.39 1.97-.67-.12-1.24-.62-1.48-1.25-.03-.09-.06-.18-.08-.28-.09-.44-.04-.86.11-1.22.21-.49.61-.88 1.12-1.08.22-.09.47-.14.72-.14.32 0 .61.07.87.2C54.6 26.46 55.06 27.15 55.06 27.94zM33.93 27.94c0 .26-.05.52-.14.74-.02.04-.03.07-.05.09-.31.69-1 1.17-1.81 1.17-.8 0-1.5-.47-1.81-1.16-.02-.03-.03-.06-.05-.1-.09-.22-.14-.48-.14-.74 0-.27.05-.52.15-.76.01-.01.01-.02.02-.04.31-.7 1.01-1.2 1.83-1.2.82 0 1.52.5 1.83 1.2.01.02.01.03.02.04C33.88 27.42 33.93 27.67 33.93 27.94z"></path><path fill="#76bfe9" d="M41.93,43.28v-2.53H39.8c-0.2-1.26-0.69-2.41-1.41-3.39l1.5-1.51l-1.78-1.8l-1.51,1.51
					c-0.99-0.72-2.15-1.22-3.41-1.42v-2.12h-2.53v2.12c-0.36,0.06-0.71,0.14-1.05,0.26c-0.85,0.25-1.62,0.64-2.32,1.14
					c-0.01,0.01-0.02,0.01-0.03,0.02l-1.51-1.51l-1.78,1.8l1.5,1.51c-0.08,0.11-0.16,0.22-0.23,0.34c-0.6,0.9-1,1.93-1.19,3.05
					h-2.12v2.53h2.12c0.21,1.26,0.69,2.42,1.42,3.41l-1.5,1.51l1.78,1.78l1.51-1.5c0.99,0.71,2.15,1.21,3.4,1.41v2.12h2.53v-2.12
					c1.26-0.2,2.42-0.7,3.41-1.41l1.51,1.5l1.78-1.78l-1.5-1.51c0.72-0.99,1.21-2.15,1.41-3.41H41.93z M31.93,47.05
					c-2.77,0-5.03-2.26-5.03-5.04c0-2.77,2.26-5.02,5.03-5.02c2.78,0,5.03,2.25,5.03,5.02C36.96,44.79,34.71,47.05,31.93,47.05z"></path><path fill="#5dafd8" d="M28.59,42.01c0-0.26,0.03-0.5,0.09-0.75c-0.07,0.25-0.1,0.5-0.1,0.76c0,0.32,0.05,0.64,0.14,0.93
					C28.64,42.65,28.59,42.34,28.59,42.01z M31.93,38.67c-0.7,0-1.34,0.21-1.87,0.58c0.54-0.36,1.18-0.57,1.87-0.57
					c0.34,0,0.68,0.05,0.99,0.15C32.61,38.73,32.27,38.67,31.93,38.67z M29.57,39.66c0.15-0.15,0.31-0.29,0.49-0.41
					c-0.16,0.1-0.31,0.22-0.45,0.36C29.59,39.63,29.58,39.64,29.57,39.66z"></path><path fill="#5dafd8" d="M31.93,36.99c-2.77,0-5.03,2.25-5.03,5.02c0,2.78,2.26,5.04,5.03,5.04c2.78,0,5.03-2.26,5.03-5.04
					C36.96,39.24,34.71,36.99,31.93,36.99z M35,43.32c-0.12,0.29-0.29,0.57-0.5,0.82c-0.06,0.08-0.14,0.17-0.22,0.23
					c-0.6,0.61-1.43,0.99-2.35,0.99c-0.26,0-0.5-0.03-0.75-0.09c-0.08-0.02-0.16-0.03-0.24-0.07c-0.11-0.03-0.21-0.06-0.31-0.11
					c-0.2-0.08-0.39-0.18-0.57-0.31c-0.08-0.06-0.17-0.12-0.25-0.19c-0.08-0.05-0.14-0.11-0.21-0.18c-0.01-0.01-0.03-0.03-0.03-0.04
					c-0.07-0.07-0.15-0.15-0.22-0.23c-0.07-0.09-0.13-0.17-0.19-0.26c-0.04-0.06-0.09-0.13-0.13-0.2c-0.08-0.14-0.15-0.29-0.21-0.44
					c-0.04-0.09-0.07-0.19-0.1-0.29c-0.09-0.29-0.14-0.61-0.14-0.93c0-0.26,0.03-0.51,0.1-0.76c0.01-0.07,0.04-0.16,0.06-0.23
					c0.03-0.11,0.06-0.21,0.11-0.31c0.08-0.19,0.18-0.39,0.31-0.57c0.13-0.17,0.26-0.34,0.41-0.49c0.01-0.02,0.02-0.03,0.04-0.05
					c0.14-0.14,0.29-0.26,0.45-0.36c0.53-0.37,1.17-0.58,1.87-0.58c0.34,0,0.68,0.06,0.99,0.16c0.1,0.03,0.21,0.06,0.31,0.11
					c0.39,0.17,0.75,0.41,1.05,0.72c0.08,0.06,0.16,0.15,0.22,0.23c0.21,0.26,0.38,0.53,0.5,0.83c0.17,0.4,0.26,0.83,0.26,1.29
					C35.26,42.48,35.17,42.91,35,43.32z"></path><path d="M63.21,5.62v52.77c0,3.1-2.51,5.61-5.62,5.61H6.41c-1.73,0-3.27-0.77-4.29-1.99l19.81-20.83l0.41-0.43
		l2.9-3.05l2.05-2.16l5.53-5.81l0.93-0.99l1.33-1.4l0.2-0.2l12.64-13.29l12.46-13.1C62.07,1.71,63.21,3.53,63.21,5.62z" opacity=".1"></path></svg>