<svg xmlns="http://www.w3.org/2000/svg" enable-background="new 0 0 128 128" viewBox="0 0 128 128" id="energy"><path fill="#3c4752" d="M125,53.9h-0.2c-3.2,0-6.5-0.1-9.7,0c-0.4,0-0.7,0-1-0.1c-1.3-6.6-3.9-12.7-7.5-18.2c0.2-0.3,0.6-0.7,1.1-1.2
	c2.2-2.2,4.4-4.4,6.6-6.6c-4-5.5-8.8-10.3-14.3-14.2c-2.3,2.3-4.7,4.6-7,7c-0.3,0.3-0.6,0.5-0.9,0.7c-5.4-3.6-11.6-6.2-18.2-7.5
	c0-0.2-0.1-0.4-0.1-0.7c0.1-1.7,0-3.5,0-5.2h0c0-1.7,0-3.3,0-4.9v0c-3.2-0.5-6.5-0.8-9.9-0.8c-3.4,0-6.7,0.3-9.9,0.8v0
	c0.1,1.6,0,3.3,0,4.9h0c0,1.7,0,3.5,0,5.2c0,0.3,0,0.5-0.1,0.7c-6.6,1.3-12.8,3.9-18.2,7.5c-0.3-0.1-0.6-0.4-0.9-0.7
	c-2.3-2.4-4.6-4.7-6.9-7c-5.5,3.9-10.3,8.7-14.3,14.2c2.2,2.2,4.4,4.4,6.6,6.6c0.5,0.5,0.9,0.9,1.1,1.2c-3.6,5.4-6.2,11.5-7.5,18.2
	c-0.3,0.1-0.6,0.1-1,0.1c-3.2-0.1-6.5,0-9.7,0H3C2.5,57.2,2.2,60.6,2.2,64c0,3.4,0.3,6.8,0.8,10c0.1,0,0.3,0,0.4,0
	c3.4,0,6.8,0,10.2,0c0.1,0,0.2,0,0.3,0c1.3,6.7,4,13,7.7,18.4c-0.1,0.2-0.3,0.3-0.5,0.5c-2.2,2.1-4.4,4.3-6.6,6.5
	c-0.3,0.3-0.5,0.5-0.7,0.7c3.9,5.4,8.7,10.2,14.2,14.1c0.1-0.1,0.1-0.1,0.2-0.2c2.3-2.4,4.7-4.7,7-7.1c0.2-0.2,0.3-0.3,0.5-0.4
	c5.5,3.6,11.7,6.2,18.3,7.5c0.1,0.2,0.1,0.5,0.1,0.9c-0.1,3.3,0,6.6,0,9.9v0.2c3.2,0.5,6.5,0.8,9.8,0.8c3.4,0,6.6-0.3,9.8-0.8v-0.2
	c0-3.3,0-6.6-0.1-9.9c0-0.3,0-0.6,0.1-0.9c6.7-1.3,12.9-3.9,18.3-7.5c0.2,0.1,0.3,0.3,0.5,0.4c2.3,2.4,4.7,4.7,7,7.1
	c0.1,0.1,0.1,0.1,0.2,0.2c5.5-3.9,10.2-8.7,14.2-14.1c-0.2-0.2-0.4-0.4-0.7-0.7c-2.2-2.2-4.3-4.4-6.6-6.5c-0.2-0.2-0.3-0.4-0.5-0.5
	c3.7-5.5,6.3-11.7,7.7-18.4c0.1,0,0.2,0,0.3,0c3.4,0,6.8,0,10.2,0c0.1,0,0.3,0,0.4,0c0.5-3.3,0.8-6.6,0.8-10
	C125.8,60.6,125.5,57.2,125,53.9z M79.6,65.5c-0.4,0.7-1,1.2-1.7,1.4c-0.5,0.1-8.1,2.1-13,3.3l-1.3,0.3L70,87.8l0.1,0.2
	c0.9,1.5,0.5,3.4-1,4.3c-1.5,0.9-3.4,0.5-4.3-1L48.5,65.7c-0.6-1-0.6-2.2-0.1-3.2c0.4-0.8,1.1-1.3,2-1.5c0.3-0.1,7.9-1.7,12.8-2.8
	l1.4-0.3L58,40.2L57.9,40c-0.9-1.5-0.5-3.4,1-4.3c0.5-0.3,1.1-0.5,1.7-0.5c1,0,2.1,0.5,2.6,1.4l16.3,25.7c0.3,0.5,0.5,1.1,0.5,1.7
	C80,64.5,79.8,65,79.6,65.5z"></path></svg>