<svg xmlns="http://www.w3.org/2000/svg" data-name="Layer 1" viewBox="0 0 64 64" id="generator"><path d="M19,34H29a1,1,0,0,0,1-1V27a1,1,0,0,0-1-1H19a1,1,0,0,0-1,1v6A1,1,0,0,0,19,34Zm1-6h8v4H20Z"></path><rect width="4" height="2" x="18" y="36"></rect><rect width="4" height="2" x="26" y="36"></rect><rect width="12" height="2" x="18" y="40"></rect><rect width="2" height="6" x="18" y="44"></rect><rect width="2" height="6" x="23" y="44"></rect><rect width="2" height="6" x="28" y="44"></rect><path d="M49,37H45.27l4-4.32-1.48-1.36-5.5,6a1,1,0,0,0-.18,1.08A1,1,0,0,0,43,39h3.73l-4,4.32,1.48,1.36,5.5-6a1,1,0,0,0,.18-1.08A1,1,0,0,0,49,37Z"></path><path d="M57,6H23V8H56v4H54V11a1,1,0,0,0-1-1H39a1,1,0,0,0-1,1v4a1,1,0,0,0,1,1h2v2H7a1,1,0,0,0-1,1V53a1,1,0,0,0,1,1H9v3a1,1,0,0,0,1,1h8a1,1,0,0,0,1-1V54H45v3a1,1,0,0,0,1,1h8a1,1,0,0,0,1-1V54h2a1,1,0,0,0,1-1V19a1,1,0,0,0-1-1H51V16h2a1,1,0,0,0,1-1V14h3a1,1,0,0,0,1-1V7A1,1,0,0,0,57,6ZM17,56H11V54h6Zm-3-8H12V46h2Zm0-20H12V26h2ZM38,52H16V24H38Zm2,0V24H52V52Zm13,4H47V54h6Zm3-36V52H54V23a1,1,0,0,0-1-1H15a1,1,0,0,0-1,1v1H11a1,1,0,0,0-1,1v4a1,1,0,0,0,1,1h3V44H11a1,1,0,0,0-1,1v4a1,1,0,0,0,1,1h3v2H8V20ZM43,18V16h2v2Zm4,0V16h2v2Zm5-4H40V12H52Z"></path></svg>