<svg xmlns="http://www.w3.org/2000/svg" enable-background="new 0 0 48 48" viewBox="0 0 48 48" id="handsaw"><path d="M46,28h-2.1l-0.5-6.5c-0.3-3.6-3.4-6.5-7-6.5H23.6c-3.7,0-6.7,2.9-7,6.5L16.1,28H15v-2c0-0.6-0.4-1-1-1H5c-2.2,0-4,1.8-4,4
	s1.8,4,4,4h9c0.6,0,1-0.4,1-1v-2h2.8l2.2,0.9c0.3,0.1,0.7,0.1,1-0.2l1.8-1.5l1.8,1.5c0.4,0.3,0.9,0.3,1.3,0l1.8-1.5l1.8,1.5
	c0.4,0.3,0.9,0.3,1.3,0l1.8-1.5l1.8,1.5c0.4,0.3,0.9,0.3,1.3,0l1.8-1.5l1.8,1.5c0.2,0.2,0.4,0.2,0.6,0.2c0.1,0,0.3,0,0.4-0.1
	l2.2-0.9H43h3c0.6,0,1-0.4,1-1S46.6,28,46,28z M39.8,28.8l-1.9-1.6c-0.4-0.3-0.9-0.3-1.3,0l-1.8,1.5L33,27.2c-0.4-0.3-0.9-0.3-1.3,0
	L30,28.7l-1.8-1.5c-0.4-0.3-0.9-0.3-1.3,0l-1.8,1.5l-1.8-1.5c-0.4-0.3-0.9-0.3-1.3,0l-1.9,1.6L18.4,28c0,0,0,0,0,0h0
	c-0.1,0-0.1,0-0.2,0c0,0-0.1,0-0.1,0l0.5-6.3c0.2-2.6,2.4-4.7,5-4.7h12.8c2.6,0,4.8,2,5,4.7l0.5,6.4c0,0-0.1,0-0.1,0
	c-0.1,0-0.1,0-0.2,0l0,0c0,0,0,0,0,0L39.8,28.8z"></path></svg>