<svg xmlns="http://www.w3.org/2000/svg" viewBox="0 0 64 64" id="home-renovation"><g data-name="Layer 1"><path d="M40.011 41.001a1 1 0 0 0-1 1l.08 4H8.01V27.028c.052-.005 15.443-9.481 15.5-9.507.098.054 15.411 9.475 15.5 9.51v.97a1 1 0 0 0 2 0v-.417a4.011 4.011 0 0 0 2.114-7.408l-10.53-6.465 1.936-1.187c.098.056 15.412 9.47 15.5 9.51V28a1 1 0 0 0 2 0V22.59a4.012 4.012 0 0 0 2.113-7.41l-17-10.442a4.982 4.982 0 0 0-5.227.001l-7.185 4.417a4.967 4.967 0 0 0-3.835.583l-17 10.437a4.003 4.003 0 0 0 2.114 7.394V46a1.963 1.963 0 0 0 1.92 2h31.16a1.963 1.963 0 0 0 1.92-2v-4a1 1 0 0 0-1-1ZM32.963 6.444a2.989 2.989 0 0 1 3.135 0l16.998 10.438a2 2 0 0 1-2.092 3.407l-15.95-9.79a1 1 0 0 0-1.045 0l-3.326 2.038-3.817-2.344ZM4.285 24.631a2.01 2.01 0 0 1 .659-2.75l17-10.438a2.983 2.983 0 0 1 3.136 0L42.079 21.88a2.01 2.01 0 0 1 .658 2.751 2.04 2.04 0 0 1-2.75.659l-15.952-9.794a1 1 0 0 0-1.047 0L7.036 25.29a2.001 2.001 0 0 1-2.75-.659Z"></path><path d="M59.011 34.001h-1.085a6.273 6.273 0 0 0-2.315-3.8 1 1 0 0 0-.6-.2h-23a1.001 1.001 0 0 0-.6.2c-4.227 3.323-2.069 9.033.6 9.8h23c1.859-.487 2.735-3.027 2.895-4h1.105a1.001 1.001 0 0 1 1 1v4a1.001 1.001 0 0 1-1 1h-13a1 1 0 0 0-1 1v3a3.003 3.003 0 0 0-3 3v8a3.003 3.003 0 0 0 3 3h2a3.003 3.003 0 0 0 3-3v-8a3.003 3.003 0 0 0-3-3v-2h12a3.003 3.003 0 0 0 3-3v-4a3.003 3.003 0 0 0-3-3Zm-4.354 4H32.375a3.974 3.974 0 0 1-.01-6h22.283a3.975 3.975 0 0 1 .009 6Zm-6.646 11v8a1.001 1.001 0 0 1-1 1h-2a1.001 1.001 0 0 1-1-1v-8a1.001 1.001 0 0 1 1-1h2a1.001 1.001 0 0 1 1 1Z"></path></g></svg>