<svg xmlns="http://www.w3.org/2000/svg" viewBox="0 0 50 50" id="online-analytics"><path fill="#575b6d" d="M8.12 33.31h33.77v2H8.12z"></path><rect width="39.83" height="28.26" x="5.08" y="5.4" fill="#62667c" rx="1.63"></rect><path fill="#eeefee" d="M6.96 7.9h36.09v23.89H6.96z"></path><path fill="#62667c" d="m48.83 42.35-3.53-7a1.38 1.38 0 0 0-1.23-.76H5.93a1.36 1.36 0 0 0-1.22.75l-3.54 7a1.55 1.55 0 0 0 1.38 2.26h44.9a1.55 1.55 0 0 0 1.38-2.25Z"></path><path fill="#575b6d" d="m47.06 41.21-2.63-5.16a.68.68 0 0 0-.62-.38H6.19a.68.68 0 0 0-.62.38L3 41.21ZM18.96 41.97h5.73v1.52h-5.73zM25.31 41.97h5.73v1.52h-5.73z"></path><path fill="#828a9e" d="M24.35 6.67a.65.65 0 1 1 .65.65.65.65 0 0 1-.65-.65Z"></path><path fill="#62667c" d="m35.21 11-7.65 5.56a.86.86 0 0 1-.79.12l-6.58-2.31a.85.85 0 0 0-.68 0L12 18.3l.47.93 7.17-3.67a.87.87 0 0 1 .67-.05l6.68 2.35a.86.86 0 0 0 .79-.12l8.12-5.9a4.63 4.63 0 0 1-.69-.84Z"></path><path fill="#62667c" d="m33.79 10.46 2.29 3a.35.35 0 0 0 .61-.08L38 10.07a.36.36 0 0 0-.36-.49l-3.64.3a.36.36 0 0 0-.21.58Z"></path><path fill="#26a6d1" d="M13.56 20.97h2.39v8.81h-2.39z"></path><path fill="#e2574d" d="M18.13 17.75h2.39v12.03h-2.39z"></path><path fill="#f4b458" d="M22.71 19.23h2.39v10.55h-2.39z"></path><path fill="#3db39e" d="M27.28 20.35h2.39v9.43h-2.39z"></path><path fill="#efc75e" d="M31.85 15.87h2.39v13.91h-2.39z"></path></svg>