<svg xmlns="http://www.w3.org/2000/svg" viewBox="0 0 512 512" id="social-media-marketing"><path fill="#fc6121" fill-rule="evenodd" d="M268.3 63.4c23 0 41.6 18.6 41.6 41.6s-18.6 41.6-41.6 41.6c-4.1 0-8.1-.6-11.9-1.7 1-2 2.4-4.3 2.8-5 2.4-4.6 3.9-14.4 4.6-15.5.8 1.4 2.1 2.6 3.5 3.3 1.4.7 3.5 1.5 5 1.7 3.9.4 8.3-.8 11.1-2.4 5.8-3.3 9.4-9.1 11.2-15.7 2.2-8.3 1.7-15.6-2.3-22-3-4.8-8.6-9.2-16.1-10.8-7.7-1.6-16.6-.1-22.4 3.4-5.3 3.1-9.9 7.8-12.1 14.8-1.2 3.8-1.4 7.9-.5 12 1.7 8 8.1 11.6 9.5 10.2.4-.4 1.5-4.4 1.4-5.2-.2-1.3-3.6-3-3.4-10 .3-8.1 5.2-13.9 10.4-16.5 6.6-3.3 15.8-3.1 21.3 1.2 5.4 4.3 6.8 11.4 4.7 20.3-.9 3.7-2.2 6.9-4.2 9.3-1 1.3-2 2.4-3.5 3.3-6 3.3-12-.7-11-6.4.6-3.4 2.1-7.1 3-10.5 2.7-10.2-3.8-11.9-7.7-9.9-4.8 2.4-5.9 9.4-4.4 14.6.3 1.1.8 1.5.5 2.6l-1.9 8.1c-1.2 5.6-2.7 10.3-3.4 15.4-.4 2.8-.7 5.4-1 8-14.5-6.5-24.6-21.1-24.6-38-.2-23.2 18.4-41.8 41.4-41.8zm178.1 134.8H377c-3 0-5.5 2.5-5.5 5.5V273c0 3 2.5 5.5 5.5 5.5h69.4c3 0 5.5-2.5 5.5-5.5v-69.4c0-2.9-2.5-5.4-5.5-5.4zm-49.7 66.5h-11.6v-35.4h11.6v35.4zm-5.7-40c-3.7 0-6.7-2.8-6.7-6.3s3-6.3 6.7-6.3 6.7 2.8 6.7 6.3-3 6.3-6.7 6.3zm48.2 40h-11.7V244.1c0-3.5-2.8-6.3-6.2-6.3-3.5 0-6.2 2.8-6.2 6.3v20.6h-11.7v-35.4H415v4.4c6.8-9.6 24.2-6.3 24.2 7.6v23.4zm-291.9-66.5H77.9c-3 0-5.5 2.5-5.5 5.5V273c0 3 2.5 5.5 5.5 5.5h69.4c3 0 5.5-2.5 5.5-5.5v-69.4c0-2.9-2.5-5.4-5.5-5.4zm-9.4 26.9c1.5 33.2-34.8 48.5-56.9 33 7 .8 13.4-.5 19-5.1-5.4-.4-9.5-3.4-12.3-9.4 2.1.4 4.1.6 6.1 0-6.8-1.5-10.1-6.6-10.4-13 2 1 3.6 1.5 5.7 1.5-5.6-4.2-7.3-10.6-3.9-17 7.7 9.6 16.7 13.4 26.5 13.3-1.7-15 14.6-20.4 22.6-11.8 3.5-.9 6.3-1.9 8.2-3.3-.6 3-2.6 5.3-5.5 7.2 2.6-.2 5-.8 7.2-1.9-1.6 2.7-3.6 5-6.3 6.5zM180 94h-69.4c-3 0-5.5 2.5-5.5 5.5v69.3c0 3 2.5 5.5 5.5 5.5h31.8V137h-10v-12h10v-6.6c0-8.2 6.7-14.9 14.9-14.9h12.2v12.3h-6.3c-2.7 0-5 2.2-5 5v4.3h11.3v12.1h-11.3v37.3H180c3 0 5.5-2.5 5.5-5.5V99.5c0-3-2.5-5.5-5.5-5.5zm238.5 0h-69.4c-3 0-5.5 2.5-5.5 5.5v69.3c0 3 2.5 5.5 5.5 5.5h69.4c3 0 5.5-2.5 5.5-5.5V99.5c-.1-3-2.5-5.5-5.5-5.5zM406 158l-1.4.5c-3.6 1.3-9.2 2.8-15.8 2.8-8.3 0-14.8-2.3-19.8-7.1-4.8-4.6-7.5-11.8-7.5-19.8.1-16.4 11.6-27.4 28.7-27.4 5.9 0 10.7 1.3 13.1 2.5l1.6.8-2.7 9.2-2.2-1c-2-.9-5-1.9-10-1.9-11 0-17.6 6.6-17.6 17.6 0 11.1 6.3 17.7 16.8 17.7 2.9 0 5-.3 6.3-.7v-11.1h-10v-9.3H406V158z" clip-rule="evenodd"></path><g fill="#67cee1"><path d="m280.1 340.2-3.3 3.4V207.4c0-4.7-3.8-8.5-8.5-8.5s-8.5 3.8-8.5 8.5v136.5l-3.4-3.3c-3.4-3.3-8.8-3.2-12.1.2-1.6 1.6-2.4 3.8-2.4 6.1s.9 4.4 2.6 6l16.7 16.2c1.6 2.4 4.3 3.9 7.2 3.9h.6c2.2-.1 4.2-1 5.8-2.6l17.6-18.2c3.3-3.4 3.2-8.8-.2-12.1-3.4-3.4-8.8-3.3-12.1.1z"></path><path d="M248.4 303.2c0-2.3-.8-4.4-2.4-6.1-3.3-3.4-8.7-3.4-12.1-.2l-3.4 3.3v-51.8l-1.5-4.3-37.4-48.5c-1.4-1.8-3.4-3-5.7-3.2-2.3-.3-4.5.3-6.3 1.7-3.7 2.9-4.4 8.2-1.5 12l35.3 45.8V300l-3.3-3.4c-3.3-3.4-8.7-3.4-12.1-.2-3.4 3.3-3.4 8.7-.2 12.1l17.6 18.2c1.5 1.6 3.6 2.5 5.8 2.6h.6c2.9 0 5.6-1.5 7.2-3.9l16.7-16.2c1.8-1.5 2.7-3.7 2.7-6zm110-97.1c2.9-3.7 2.2-9.1-1.5-12-1.8-1.4-4.1-2-6.3-1.7-2.3.3-4.3 1.4-5.7 3.2l-37.4 48.5-1.5 4.3v51.8l-3.4-3.3c-3.4-3.3-8.8-3.2-12.1.2-1.6 1.6-2.4 3.8-2.4 6.1s.9 4.4 2.6 6l16.7 16.2c1.6 2.4 4.3 3.9 7.2 3.9h.6c2.2-.1 4.2-1 5.8-2.6l17.6-18.2c3.3-3.4 3.2-8.8-.2-12.1-3.4-3.3-8.8-3.2-12.1.2L323 300v-48.1l35.4-45.8z"></path></g><path fill="#67cee1" d="M451.9 449.8V294c-1.8.5-3.6.7-5.5.7h-21.9V449.8h-93.6v1.5c0 8.7-7.7 15.7-17.1 15.7H210.5c-9.5 0-17.1-7-17.1-15.7v-1.6H99.7v-155H77.9c-1.9 0-3.7-.2-5.5-.7v155.7H30.7v16.4c0 14 12.7 25.2 28.3 25.2h406.2c15.7 0 28.3-11.2 28.3-25.1v-16.4h-41.6z"></path><path d="M91.4 238.6c2.4-4 3.7-8.1 3.7-11.6 0-2.7-.1-3.7-1.8-5.5-1-1.3-2.5-2.2-3.8-2.5-2-.4-3.1.3-5.2 1.8l-1.3 1-.4-.3c-3.9-2.9-11-3.9-15.9-2.2-3 1-5.6 2.9-7.4 5.3-1.3 1.6-2.9 5.1-3.2 7.3-.3-.1-.8-.2-1.5-.4-3.8-.9-7.1-2.9-10.4-6.1-3.2-3.1-4.3-3.5-5-3.5-3.8 0-7 3.4-8.6 9.1-2.4 8.8 0 17.9 6.6 24.4l1.2 1.2c-1.3.4-3.2.7-5.3.9-4.7.5-4.9.7-5.4 1l-.3.4c-.4.6-.5 1.1.1 4.1 1.3 6.3 8.6 11.2 20.1 13.4 2.3.4 5.3.7 8.5.7 3.3 0 6.5-.3 8.7-.7 4.5-1 10.3-3.8 13.5-6.3 6.5-5.2 11-15.1 11.7-25.7.2-3.7.4-4.2 1.4-5.8zm-9.3-4.2c-1.6 2.4-2.1 3.8-1.8 5 .2.9-.4 7.5-1.3 10.8-1.7 6.4-5.9 12-11.1 14.5-6.6 3.2-15.4 3.4-23.9.5 1.8-.9 3.7-2.2 4.8-3.3 1.4-1.3 4-4.7 4-6.6 0-.9-.5-1.7-3.6-3.4-5.7-3.1-8.9-7.5-9.2-12.9-.1-1.8-.1-3.1 0-3.9l.3.3c2.9 2.4 8.9 5.2 13.2 6.1 4 .8 5.7.9 9 .5l3.6-.5-.3-4.6c-.3-4 1-6.9 3.6-7.9 1.4-.6 4.8-.6 6.2 0 .4.1 1.6 1 2.4 2l2.4 2.9 2.9-1.1c-.5.4-.8 1-1.2 1.6z"></path><path d="M113.2 271.4v-47.2c0-16-12.6-28.6-28.6-28.6H37.5c-16 0-28.6 12.6-28.6 28.6v47.2c0 16 12.6 28.6 28.6 28.6h47.2c16 0 28.5-12.6 28.5-28.6zm-93.3 0v-47.2c0-10 7.6-17.6 17.6-17.6h47.2c10 0 17.6 7.6 17.6 17.6v47.2c0 10-7.6 17.6-17.6 17.6H37.5c-10.1 0-17.6-7.6-17.6-17.6z"></path><ellipse cx="431.1" cy="224.9" rx="7.8" ry="7.4"></ellipse><path d="M431 237.7c-3.8 0-6.9 3.1-6.9 6.9v22.8c0 3.8 3.1 6.9 6.9 6.9s6.9-3.1 6.9-6.9v-22.8c0-3.8-3.1-6.9-6.9-6.9zm37-.9c-3.5 0-6.6 1.1-9.1 3.2v-2.2h-7.4c-3.6 0-6.6 2.9-6.6 6.6v23c0 3.8 3.1 7 7 7 3.8 0 7-3.1 7-7v-14.1c0-2.6 2.1-4.7 4.6-4.7 2.6 0 4.6 2.1 4.6 4.7v14.1c0 3.8 3.1 7 6.9 7 3.8 0 6.9-3.1 6.9-6.9v-16.7c0-4.2-1.5-7.8-4.4-10.3-2.4-2.5-5.8-3.7-9.5-3.7z"></path><path d="M474.5 195.6h-47.2c-16 0-28.6 12.6-28.6 28.6v47.2c0 16 12.6 28.6 28.6 28.6h47.2c16 0 28.6-12.6 28.6-28.6v-47.2c0-16.1-12.5-28.6-28.6-28.6zm17.6 75.7c0 10-7.6 17.6-17.6 17.6h-47.2c-10 0-17.6-7.6-17.6-17.6v-47.2c0-10 7.6-17.6 17.6-17.6h47.2c10 0 17.6 7.6 17.6 17.6v47.2zM378.8 134.1l.1-.1 1 1.2c2.6 2.9 5.6 5.5 9 7.3 10.4 5.6 22.5 5 31.9-.7l3.4-2-.1-.1 1.6-1.4c6.9-6.1 10.8-14.9 10.8-24.1 0-.3 0-.8-.1-1.4-.2-2.7-2.4-4.7-5-4.7h-21.1c-3.5 0-6.3 2.8-6.3 6.3s2.8 6.3 6.3 6.3h12.5c-1.1 3.2-3.1 6.1-5.7 8.3l-1.9 1.7-2 1c-2.7 1.4-5.7 2.1-8.8 2.1-5.9 0-11.5-3-15.3-7.5L388 125l-1-2c-1.4-2.7-2.1-5.7-2.1-8.7 0-3 .7-6.1 2.1-8.7l1-2 1.7-1.9c3.7-4.3 9.1-6.8 14.8-6.8 2.5 0 6.8 1.9 10 3.6 2.6 1.3 5.7.8 7.7-1.2 2.9-2.9 2.5-7.8-.9-10.1-1-.7-1.9-1.2-2.5-1.5-13.7-6.7-29.1-3-38.4 7.5l-1.4 1.6-.1-.1-2 3.4c-3 5-4.6 10.7-4.6 16.5 0 5.8 1.6 11.5 4.6 16.5l1.9 3z"></path><path d="M380.8 166.4H428c16 0 28.6-12.6 28.6-28.6V90.6c0-16-12.6-28.6-28.6-28.6h-47.2c-16 0-28.6 12.6-28.6 28.6v47.2c.1 16 12.6 28.6 28.6 28.6zm-17.6-75.8c0-10 7.6-17.6 17.6-17.6H428c10 0 17.6 7.6 17.6 17.6v47.2c0 10-7.6 17.6-17.6 17.6h-47.2c-10 0-17.6-7.6-17.6-17.6V90.6zM194.6 463c0 4 3.2 7.2 7.2 7.2h109.7c4 0 7.2-3.2 7.2-7.2s-3.2-7.2-7.2-7.2H201.8c-4 .1-7.2 3.3-7.2 7.2z"></path><path d="M461.6 491.7h-30V325.5c0-4-3.2-7.2-7.2-7.2s-7.2 3.2-7.2 7.2v166.2H93.7V325.5c0-4-3.2-7.2-7.2-7.2s-7.2 3.2-7.2 7.2v166.2H54.1c-4 0-7.2 3.2-7.2 7.2s3.2 7.2 7.2 7.2h407.5c4 0 7.2-3.2 7.2-7.2-.1-4-3.3-7.2-7.2-7.2z"></path><path d="M256.7 201.8c-4 0-7.2 3.2-7.2 7.2v144.7l-10.1-13.5c-2.4-3.2-6.9-3.8-10-1.4-3.2 2.4-3.8 6.8-1.4 10l23 30.7.2.2c.2.3.4.5.7.7l.4.4.2.2c.1.1.2.1.3.2.4.3.9.5 1.4.7.2.1.4.1.6.2.6.2 1.3.3 1.9.3.7 0 1.3-.1 2-.3h.2c.1 0 .2-.1.3-.2.5-.2.9-.4 1.4-.7.2-.1.3-.2.5-.3.5-.4 1-.9 1.4-1.4l22.8-31.4c2.3-3.2 1.6-7.7-1.6-10s-7.7-1.6-10 1.6l-9.9 13.6V208.9c.1-3.9-3.1-7.1-7.1-7.1zm-120.5-10.2c-3.1 2.4-3.7 6.9-1.3 10l39.3 50.9v55.9L164.1 295c-2.4-3.2-6.9-3.8-10-1.4-3.2 2.4-3.8 6.9-1.4 10l23 30.7.2.2c.2.3.5.5.7.7l.4.4.2.2c.1.1.2.1.3.2.4.3.9.5 1.4.7.2.1.4.1.6.2.6.2 1.3.3 1.9.3.7 0 1.3-.1 2-.3h.2c.1 0 .2-.1.3-.2.5-.2.9-.4 1.4-.7.2-.1.3-.2.5-.3.5-.4 1-.9 1.4-1.4l22.8-31.4c2.3-3.2 1.6-7.7-1.6-10s-7.7-1.6-10 1.6l-9.9 13.6v-57.8c0-1.6-.5-3.1-1.5-4.4l-40.8-52.8c-2.4-3.3-6.9-3.9-10-1.5zm167.5 101.2c-3.2 2.3-3.9 6.8-1.6 10l22.8 31.4c.4.6.9 1 1.4 1.4.1.1.3.2.5.3.4.3.9.5 1.4.7.1 0 .2.1.3.2h.2c.7.2 1.3.3 2 .3s1.3-.1 1.9-.3c.2-.1.4-.1.6-.2.5-.2.9-.4 1.4-.7.1-.1.2-.1.3-.2.1 0 .1-.1.2-.2.2-.1.3-.3.4-.4.3-.2.5-.5.7-.7l.2-.2 23-30.7c2.4-3.2 1.7-7.6-1.4-10-3.2-2.4-7.6-1.7-10 1.4l-10.1 13.5v-55.9l39.3-50.9c2.4-3.1 1.8-7.6-1.3-10-3.1-2.4-7.6-1.8-10 1.3L325 245.8a7.1 7.1 0 0 0-1.5 4.4V308l-9.9-13.6c-2.2-3.2-6.7-3.9-9.9-1.6zM91.1 166.4h19.6c.3 0 .7.1 1 .1.3 0 .7-.1 1-.1h25.6c16 0 28.6-12.6 28.6-28.6V90.6c0-16-12.6-28.6-28.6-28.6H91.1c-16 0-28.6 12.6-28.6 28.6v47.2c0 16 12.6 28.6 28.6 28.6zM73.5 90.6c0-10 7.6-17.6 17.6-17.6h47.2c10 0 17.6 7.6 17.6 17.6v47.2c0 10-7.6 17.6-17.6 17.6h-19.4v-22.3h13.6c4 0 7.2-3.2 7.2-7.2s-3.2-7.2-7.2-7.2h-13.6v-9.9c.4-3.2 1.6-5.5 3.7-7.2 4.7-3.7 13-3.6 15.8-3.2 3.9.5 7.5-2.2 8-6.1.5-3.9-2.2-7.5-6.1-8.1-1.6-.2-16.2-1.9-26.5 6.1-5.3 4.1-8.4 10.1-9.2 17.3V118.7H92.7c-4 0-7.2 3.2-7.2 7.2s3.2 7.2 7.2 7.2h11.8v22.3H91.1c-10 0-17.6-7.6-17.6-17.6V90.6zm160.7 19.8h47.2c16 0 28.6-12.6 28.6-28.6V34.6c0-16-12.6-28.6-28.6-28.6h-47.2c-16 0-28.6 12.6-28.6 28.6v47.2c0 16 12.6 28.6 28.6 28.6zm-17.6-75.8c0-10 7.6-17.6 17.6-17.6h47.2c10 0 17.6 7.6 17.6 17.6v47.2c0 10-7.6 17.6-17.6 17.6h-26.3l3.7-14.3c.8.1 1.6.2 2.4.2h.2c6.4 0 12.6-2.2 17.5-6.3 9.8-8 13.7-23.6 9-36.2-2.8-7.4-8.1-13-14.9-15.8-5.3-2.1-11.4-2.7-17.8-1.6-10.4 1.8-19.5 7.7-24.3 15.9-3.2 5.4-5.2 14.9-3 22.7 1.3 4.6 4.1 8.1 7.9 10.1 2.4 1.2 5.3.7 7.1-1 1.8-3.9 1.8-6.1 1.8-6.1-.4-1.7-1.6-3.2-3.2-4-.3-.1-1.1-.5-1.6-2.4-1.1-3.8 0-9.9 1.7-12.9 3-5.1 8.8-8.8 15.6-9.9 4.1-.7 7.9-.4 11 .9 4.5 1.8 6.8 5.7 7.8 8.6 2.8 7.6.5 17.6-5.2 22.2-2.5 2-5.7 3.2-8.9 3.4l4.2-16.1c.9-3.3-1.1-6.8-4.5-7.6-3.4-.9-6.8 1.1-7.6 4.5l-12 45.9h-7.9c-10 0-17.6-7.6-17.6-17.6V34.6z"></path></svg>