<svg xmlns="http://www.w3.org/2000/svg" viewBox="0 0 48 48" id="socket"><path d="M10,37H24a2,2,0,0,0,2-2V5a2,2,0,0,0-2-2H10A2,2,0,0,0,8,5V35A2,2,0,0,0,10,37ZM10,5H24V35H10Z"></path><path d="M29 8V41.538A1.464 1.464 0 0127.538 43H18.593A.593.593 0 0118 42.408V40h2a1 1 0 000-2H14a1 1 0 000 2h2v2.408A2.6 2.6 0 0018.593 45h8.945A3.466 3.466 0 0031 41.538V8a3 3 0 016 0v6.142A4 4 0 0034 18v3a1 1 0 001 1v1a1 1 0 002 0V22h2v1a1 1 0 002 0V22a1 1 0 001-1V18a4 4 0 00-3-3.858V8A5 5 0 0029 8zM40 18v2H36V18a2 2 0 014 0zM17 7a6 6 0 106 6A6.006 6.006 0 0017 7zm0 10a4 4 0 114-4A4 4 0 0117 17z"></path><path d="M17,21a6,6,0,1,0,6,6A6.006,6.006,0,0,0,17,21Zm0,10a4,4,0,1,1,4-4A4,4,0,0,1,17,31Z"></path><path d="M18 26H16a1 1 0 000 2h2a1 1 0 000-2zM18 12H16a1 1 0 000 2h2a1 1 0 000-2zM38.046 38.887a1 1 0 001.3-.557l1.583-3.958A1 1 0 0040 33H38.477l1.047-2.619a1 1 0 10-1.857-.742l-1.6 3.99A1 1 0 0037 35h1.523l-1.035 2.586A1 1 0 0038.046 38.887z"></path></svg>