<svg xmlns="http://www.w3.org/2000/svg" data-name="Layer 1" viewBox="0 0 128 128" id="spigot"><path d="M103 92h-4V78a2 2 0 0 0-4 0v14h-2v20h10a6.005 6.005 0 0 0 6-6v-8a6.005 6.005 0 0 0-6-6zM57 0h-2a26.025 26.025 0 0 0-26 26v16.03A4.952 4.952 0 0 0 27 46a5.002 5.002 0 0 0 5 5h8a5.002 5.002 0 0 0 5-5 4.952 4.952 0 0 0-2-3.97V26a12.01 12.01 0 0 1 12-12h2a12.01 12.01 0 0 1 12 12v46h4V26a16.021 16.021 0 0 0-16-16h-2a16.021 16.021 0 0 0-16 16v15h-6V26A22.026 22.026 0 0 1 55 4h2a22.026 22.026 0 0 1 22 22v46h4V26A26.025 26.025 0 0 0 57 0zm33 118H62a5 5 0 0 0 0 10h28a5 5 0 0 0 0-10zm-1-36a6.005 6.005 0 0 0-6-6H69a6.005 6.005 0 0 0-6 6v32h26zM37.7 55.95a1.996 1.996 0 0 0-3.4 0c-1.24 2.01-5.3 8.82-5.3 11.96a7 7 0 1 0 14 0c0-3.14-4.06-9.95-5.3-11.96zm-10 24a1.996 1.996 0 0 0-3.4 0c-1.24 2.01-5.3 8.82-5.3 11.96a7 7 0 1 0 14 0c0-3.14-4.06-9.95-5.3-11.96zm20 0a1.996 1.996 0 0 0-3.4 0c-1.24 2.01-5.3 8.82-5.3 11.96a7 7 0 1 0 14 0c0-3.14-4.06-9.95-5.3-11.96z"></path></svg>