<svg xmlns="http://www.w3.org/2000/svg" viewBox="0 0 96 96" id="ui"><g data-name="UI UX Design"><path d="M53.92,88.25H42.25a1,1,0,0,0,0,2H53.92a1,1,0,1,0,0-2Z"></path><path d="M79.22,42.2H77V4.67A4.67,4.67,0,0,0,72.33,0H23.67A4.67,4.67,0,0,0,19,4.67V13H13.8a1,1,0,0,0-1,1V48a1,1,0,0,0,1,1H19v8.93H13.64a1,1,0,0,0-1,1V74.75a1,1,0,0,0,1,1H19V91.33A4.67,4.67,0,0,0,23.67,96H72.33A4.67,4.67,0,0,0,77,91.33V60.07h2.22a1,1,0,0,0,1-1V43.2A1,1,0,0,0,79.22,42.2ZM21,4.67A2.68,2.68,0,0,1,23.67,2H72.33A2.68,2.68,0,0,1,75,4.67V6.52a4.56,4.56,0,0,0-2.67-.85H23.67A4.56,4.56,0,0,0,21,6.52ZM14.8,15H41.25V30.23L38,27a1,1,0,0,0-1.42,0l-3,3L28,24.35a1,1,0,0,0-1.41,0L14.8,36.15ZM41.25,37.57,35,31.36l2.26-2.26,4,4ZM14.8,47V39l12.51-12.5L41.25,40.4V47Zm-.16,26.79V59.89H41.42V73.75ZM75,91.33A2.68,2.68,0,0,1,72.33,94H23.67A2.68,2.68,0,0,1,21,91.33V84a4.63,4.63,0,0,0,2.67.84H72.33A4.63,4.63,0,0,0,75,84Zm0-11.16a2.67,2.67,0,0,1-2.67,2.66H23.67A2.67,2.67,0,0,1,21,80.17V75.75H42.42a1,1,0,0,0,1-1V58.89a1,1,0,0,0-1-1H21V49H42.25a1,1,0,0,0,1-1V14a1,1,0,0,0-1-1H21V10.33a2.67,2.67,0,0,1,2.67-2.66H72.33A2.67,2.67,0,0,1,75,10.33V42.2H50.44a1,1,0,0,0-1,1V59.07a1,1,0,0,0,1,1H75Zm3.22-22.1H51.44V44.2H78.22Z"></path><path d="M60.17,29.67A5.67,5.67,0,1,0,54.5,24,5.68,5.68,0,0,0,60.17,29.67Zm0-9.34A3.67,3.67,0,1,1,56.5,24,3.67,3.67,0,0,1,60.17,20.33Z"></path><path d="M54.17 34.83v-.91h12v.91a1 1 0 001 1H71a1 1 0 001-1V31a1 1 0 00-1-1h-.92V18H71a1 1 0 001-1V13.17a1 1 0 00-1-1H67.17a1 1 0 00-1 1v.91h-12v-.91a1 1 0 00-1-1H49.33a1 1 0 00-1 1V17a1 1 0 001 1h.92V30h-.92a1 1 0 00-1 1v3.83a1 1 0 001 1h3.84A1 1 0 0054.17 34.83zm15.83-1H68.17V32H70zm0-19.66V16H68.17V14.17zm-19.67 0h1.84V16H50.33zM52.25 18h.92a1 1 0 001-1v-.92h12V17a1 1 0 001 1h.91V30h-.91a1 1 0 00-1 1v.92h-12V31a1 1 0 00-1-1h-.92zM50.33 33.83V32h1.84v1.83zM24 43.16h8a1 1 0 100-2H24a1 1 0 000 2zM74.19 47.14H55.48a1 1 0 000 2H74.19a1 1 0 000-2zM63 52.89H55.48a1 1 0 000 2H63a1 1 0 000-2zM74.19 52.89H67.62a1 1 0 000 2h6.57a1 1 0 000-2zM18.67 64.82H37.38a1 1 0 000-2H18.67a1 1 0 000 2zM26.19 70.57a1 1 0 000-2H18.67a1 1 0 000 2zM37.38 68.57H30.82a1 1 0 100 2h6.56a1 1 0 000-2zM49.44 70.55v4.2a1 1 0 002 0v-1.1H71v1.1a1 1 0 002 0v-4.2a1 1 0 00-2 0v1.1H51.44v-1.1a1 1 0 00-2 0z"></path></g></svg>